<?xml version="1.0" encoding="utf-8"?>
<!-- Generator: Adobe Illustrator 16.0.0, SVG Export Plug-In . SVG Version: 6.00 Build 0)  -->
<!DOCTYPE svg PUBLIC "-//W3C//DTD SVG 1.1//EN" "http://www.w3.org/Graphics/SVG/1.1/DTD/svg11.dtd">
<svg version="1.1" id="Layer_1" xmlns="http://www.w3.org/2000/svg" xmlns:xlink="http://www.w3.org/1999/xlink" x="0px" y="0px"
	 width="243px" height="100px" viewBox="0 0 243 100" enable-background="new 0 0 243 100" xml:space="preserve">
<path fill="#EFEFEF" d="M78.72,61.518c0,7.496-1.123,26.631-1.123,26.631s-6.097,2.89-11.872,4.332
	c-10.414,2.604-26.622,0.802-35.615,0.802c-7.936,0-15.562-1.593-15.562-1.593s-1.123-12.582-1.123-22.633
	c0-12.535-0.642-40.267-0.642-40.267s9.343-3.558,14.759-4.171c8.503-0.962,23.102-1.123,32.566-0.802
	c5.153,0.175,17.005,2.567,17.005,2.567S78.72,53.962,78.72,61.518z"/>
<circle fill="#E1E1E1" cx="24.511" cy="24.293" r="10.301"/>
<circle fill="#454545" cx="23.865" cy="22.219" r="3.219"/>
<rect x="19.813" y="29.549" transform="matrix(-0.9584 0.2855 -0.2855 -0.9584 60.4304 52.5428)" fill="#454545" width="13.144" height="2.254"/>
<g>
	<path fill="#454545" d="M32.392,27.823c0.638,2.33-3.454,5.2-5.158,5.707c-1.703,0.508-6.962-0.354-7.47-2.057
		c0,0,1.05-3.252,5.677-4.434C30.694,25.698,32.333,27.61,32.392,27.823z"/>
	<path fill="#454545" d="M20.407,33.633c-0.669-2.32,3.424-5.313,5.12-5.846c1.697-0.531,6.978,0.499,7.507,2.196
		c0,0-1.08,2.779-5.679,4.062C23.329,35.169,20.468,33.845,20.407,33.633z"/>
</g>
<g>
	<circle fill="#454545" cx="37.335" cy="11.168" r="8.252"/>
	<polygon fill="#454545" points="39.772,22.038 39.772,22.038 43.548,14.367 44.711,14.872 	"/>
	<polygon fill="#454545" points="34.871,22.096 34.871,22.096 30.063,14.923 31.177,14.317 	"/>
	<path fill="#454545" d="M40.5,24.81c0,1.067-0.496,2.193-0.949,2.193l-4.231-0.027c-0.454,0-0.819-1.099-0.819-2.166v-0.975
		c0-1.068,0.28-1.933,0.733-1.933l4.401,0.013c0.436,0.014,0.865,0.852,0.865,1.92V24.81z"/>
</g>
<g>
	<path fill="#333333" d="M34.601,24.965c0,0.451-0.365,0.815-0.816,0.815l0,0c-0.45,0-0.815-0.365-0.815-0.815l0,0
		c0-0.451,0.321-1.049,0.321-1.049C34.685,21.995,34.339,22.867,34.601,24.965L34.601,24.965z"/>
	<path fill="#333333" d="M34.811,22.774c0.109,0.074-0.113,0.202-0.244,0.202H34.43h-0.191h-0.183h-0.094
		c-0.503-0.053-0.324-0.184-0.324-0.184l0.123,0.011c0-0.13,0.011-0.174,0.121-0.101c0.051,0.034,0.084-0.1,0.119-0.05
		c0.104,0.151,0.148-0.057,0.177,0.036c0.022,0.07,0.126,0.211,0.191-0.025c0.016-0.061,0.102,0.149,0.151,0.111
		c0.104-0.08,0.273-0.113,0.133,0.044C34.617,22.858,34.777,22.751,34.811,22.774z"/>
	<path fill="#222222" d="M34.421,22.992c0,0.015-0.039,0.025-0.087,0.022l-0.273-0.016c-0.047-0.002-0.085-0.018-0.083-0.032l0,0
		c0-0.016,0.039-0.025,0.087-0.022l0.273,0.017C34.385,22.961,34.423,22.976,34.421,22.992L34.421,22.992z"/>
	<path fill="#222222" d="M34.418,23.061c-0.001,0.016-0.04,0.024-0.088,0.022l-0.274-0.017c-0.047-0.002-0.084-0.016-0.084-0.032
		l0,0c0.001-0.014,0.041-0.025,0.088-0.022l0.273,0.016C34.38,23.031,34.418,23.046,34.418,23.061L34.418,23.061z"/>
	<g>
		<path fill="#222222" d="M34.155,23.058c0.177,0.433-0.176,0.903-0.226,1.34c-0.029,0.26-0.021,0.551,0.268,0.637
			c0.074,0.021,0.105-0.093,0.032-0.114c-0.343-0.103-0.164-0.666-0.093-0.894c0.104-0.333,0.275-0.657,0.134-1.001
			C34.242,22.955,34.127,22.985,34.155,23.058L34.155,23.058z"/>
	</g>
	<g>
		<path fill="#222222" d="M34.319,23.116c0.329,0.333,0.182,0.902,0.302,1.327c0.072,0.25,0.192,0.518,0.492,0.486
			c0.076-0.008,0.061-0.126-0.016-0.118c-0.354,0.037-0.404-0.553-0.426-0.79c-0.03-0.348,0.004-0.712-0.258-0.978
			C34.361,22.989,34.266,23.061,34.319,23.116L34.319,23.116z"/>
	</g>
</g>
<g>
	<path fill="#333333" d="M39.94,25.096c0,0.487,0.394,0.882,0.881,0.882l0,0c0.485,0,0.88-0.395,0.88-0.882l0,0
		c0-0.486-0.346-1.131-0.346-1.131C39.85,21.891,40.223,22.832,39.94,25.096L39.94,25.096z"/>
	<path fill="#333333" d="M41.062,22.731c0.119,0.079-0.123,0.219-0.265,0.219h-0.146h-0.208h-0.198h-0.101
		c-0.543-0.06-0.35-0.199-0.35-0.199l0.131,0.013c0-0.142,0.015-0.189,0.133-0.11c0.055,0.037,0.091-0.108,0.128-0.054
		c0.113,0.164,0.159-0.063,0.19,0.038c0.024,0.075,0.136,0.229,0.207-0.028c0.017-0.063,0.109,0.163,0.162,0.121
		c0.112-0.085,0.297-0.124,0.144,0.047C40.853,22.823,41.024,22.708,41.062,22.731z"/>
	<path fill="#222222" d="M40.641,22.966c-0.001,0.016-0.043,0.028-0.095,0.025l-0.294-0.018c-0.051-0.004-0.092-0.019-0.092-0.035
		l0,0c0.001-0.017,0.043-0.028,0.094-0.025l0.296,0.018C40.602,22.934,40.642,22.95,40.641,22.966L40.641,22.966z"/>
	<path fill="#222222" d="M40.637,23.042c-0.002,0.017-0.044,0.027-0.095,0.023l-0.295-0.017c-0.052-0.001-0.092-0.017-0.091-0.035
		l0,0c0.001-0.015,0.044-0.026,0.096-0.023l0.294,0.018C40.596,23.009,40.638,23.024,40.637,23.042L40.637,23.042z"/>
	<g>
		<path fill="#222222" d="M40.418,23.115c-0.191,0.466,0.189,0.974,0.244,1.447c0.031,0.279,0.021,0.596-0.29,0.688
			c-0.08,0.025-0.114-0.1-0.034-0.124c0.37-0.11,0.176-0.719,0.099-0.963c-0.112-0.359-0.295-0.71-0.145-1.083
			C40.325,23.003,40.449,23.038,40.418,23.115L40.418,23.115z"/>
	</g>
	<g>
		<path fill="#222222" d="M40.241,23.178c-0.354,0.359-0.196,0.975-0.327,1.431c-0.078,0.271-0.206,0.56-0.53,0.527
			c-0.083-0.01-0.066-0.136,0.016-0.129c0.384,0.039,0.436-0.597,0.459-0.853c0.034-0.376-0.003-0.769,0.279-1.056
			C40.196,23.042,40.299,23.119,40.241,23.178L40.241,23.178z"/>
	</g>
</g>
<g>
	<g>
		<path fill="#CCCCCC" d="M41.938,27.078c-1.835-5.626-0.534-9.704-0.479-9.875l0.597,0.198c-0.014,0.038-1.292,4.064,0.476,9.481
			L41.938,27.078z"/>
	</g>
	<g>
		<path fill="#464143" d="M44.68,28.316c0.15,0.482-0.119,0.994-0.599,1.141l-0.651,0.202c-0.481,0.148-0.99-0.123-1.138-0.606
			l-0.796-2.585c-0.149-0.482,0.12-0.993,0.602-1.141l0.647-0.201c0.481-0.147,0.99,0.124,1.14,0.605L44.68,28.316z"/>
		<path fill="#888888" d="M47.539,28.371c0.248,0.801-0.2,1.65-0.998,1.897L45.462,30.6c-0.799,0.247-1.647-0.202-1.894-1.004
			l-1.324-4.298c-0.248-0.799,0.201-1.651,1-1.897l1.076-0.333c0.801-0.246,1.648,0.202,1.896,1.005L47.539,28.371z"/>
		<path fill="#666766" d="M48.396,29.459c0.175,0.573-0.145,1.179-0.717,1.355l-0.241,0.074c-0.57,0.176-1.176-0.145-1.352-0.718
			L44,23.406c-0.176-0.572,0.143-1.179,0.715-1.355l0.242-0.075c0.57-0.177,1.176,0.145,1.352,0.716L48.396,29.459z"/>
	</g>
	<g>
		<path fill="#CCCCCC" d="M59.033,27.481l-0.586-0.223c2.014-5.343,0.919-9.409,0.907-9.45l0.604-0.168
			C60.006,17.815,61.12,21.948,59.033,27.481z"/>
	</g>
	<g>
		<path fill="#464143" d="M56.236,28.589c-0.17,0.476,0.076,0.999,0.549,1.168l0.638,0.232c0.473,0.169,0.997-0.076,1.166-0.551
			l0.913-2.544c0.171-0.475-0.073-0.998-0.548-1.168l-0.637-0.23c-0.473-0.173-0.996,0.073-1.166,0.549L56.236,28.589z"/>
		<path fill="#888888" d="M53.377,28.509c-0.282,0.788,0.126,1.659,0.914,1.943l1.062,0.384c0.786,0.284,1.653-0.128,1.937-0.914
			l1.518-4.231c0.282-0.79-0.124-1.659-0.913-1.943l-1.061-0.381c-0.787-0.286-1.653,0.123-1.937,0.912L53.377,28.509z"/>
		<path fill="#666766" d="M52.474,29.556c-0.202,0.563,0.091,1.184,0.652,1.386l0.237,0.086c0.561,0.203,1.182-0.087,1.385-0.651
			l2.389-6.662c0.204-0.564-0.089-1.185-0.651-1.387l-0.236-0.086c-0.563-0.202-1.182,0.089-1.385,0.652L52.474,29.556z"/>
	</g>
	<g>
		<g>
			<path fill="#CCCCCC" d="M42.128,17.757c-0.129-0.005-0.262-0.034-0.386-0.096c-0.468-0.228-0.664-0.791-0.438-1.258
				c1.353-2.809,4.601-5.764,9.66-5.646c3.943,0.094,7.35,2.16,9.354,5.67c0.256,0.453,0.1,1.028-0.351,1.284
				c-0.449,0.258-1.024,0.103-1.282-0.35c-0.79-1.381-3.124-4.611-7.763-4.72c-4.168-0.099-6.825,2.302-7.925,4.581
				C42.832,17.567,42.487,17.764,42.128,17.757z"/>
		</g>
	</g>
	<path fill="#555655" d="M41.742,17.662c0.125,0.062,0.257,0.091,0.386,0.096c0.359,0.007,0.704-0.19,0.87-0.534
		c1.099-2.28,3.756-4.68,7.924-4.582c4.64,0.109,6.974,3.339,7.763,4.72c0.258,0.453,0.831,0.609,1.282,0.352
		c0.099-0.057,0.178-0.128,0.245-0.206c-0.019-0.076-0.045-0.149-0.086-0.216c-2.002-3.513-5.409-5.579-9.353-5.672
		c-4.912-0.115-8.117,2.673-9.536,5.403C41.296,17.292,41.475,17.532,41.742,17.662z"/>
</g>
<path fill="#454545" d="M67.222,15.039c-5.2,0-9.414,4.214-9.414,9.414c0,5.2,4.214,9.414,9.414,9.414
	c5.199,0,9.413-4.214,9.413-9.414C76.635,19.253,72.421,15.039,67.222,15.039z M71.336,25.047l-5.778,3.399l-0.357,0.167
	c0,0-0.263-0.071-0.309-0.143c-1.032-1.61-1.122-6.104,0-7.653c0.06-0.083,0.279-0.148,0.38-0.144
	c0.098,0.005,0.35,0.167,0.35,0.167l5.713,3.4c0,0,0.212,0.205,0.212,0.38C71.548,24.794,71.336,25.047,71.336,25.047z"/>
<path fill="#FEFEFE" d="M78.879,61.68c0,7.493-1.123,26.631-1.123,26.631s-6.097,2.888-11.872,4.332
	c-10.414,2.602-26.622,0.803-35.614,0.803c-7.937,0-15.562-1.594-15.562-1.594s-1.123-12.584-1.123-22.631
	c0-12.537-0.641-40.269-0.641-40.269s7.222,0.802,12.674,0.802c8.256,0,34.973-0.962,44.438-1.283
	c2.014-0.068,7.219-1.925,7.219-1.925S78.879,54.123,78.879,61.68z"/>
<path opacity="0.02" enable-background="new    " d="M26.889,29.748c0,0-0.865,0.006-1.237,0.006
	c-5.452,0-12.673-0.802-12.673-0.802s0.641,27.731,0.641,40.269c0,10.047,1.123,22.631,1.123,22.631l15.494,1.592L26.889,29.748z"/>
<g>
	<path fill="#FFFFFF" d="M89.989,45.917V29.449h2.116v16.468H89.989z"/>
	<path fill="#FFFFFF" d="M95.417,45.917V29.449h2.576l8.004,12.811h0.092l-0.092-3.174v-9.637h2.116v16.468h-2.208l-8.372-13.432
		h-0.092l0.092,3.174v10.258H95.417z"/>
	<path fill="#FFFFFF" d="M116.071,46.285c-1.196,0-2.365-0.392-3.507-1.173c-1.143-0.782-1.89-1.878-2.243-3.289l1.932-0.782
		c0.23,0.905,0.702,1.667,1.415,2.288s1.514,0.932,2.403,0.932c0.92,0,1.706-0.241,2.358-0.725c0.651-0.482,0.978-1.138,0.978-1.966
		c0-0.92-0.326-1.629-0.978-2.128c-0.652-0.498-1.683-0.962-3.094-1.392c-1.457-0.46-2.561-1.054-3.312-1.782
		c-0.751-0.729-1.127-1.659-1.127-2.795c0-1.181,0.468-2.208,1.403-3.082c0.936-0.874,2.154-1.311,3.657-1.311
		c1.395,0,2.53,0.349,3.404,1.047c0.874,0.697,1.441,1.46,1.702,2.288l-1.932,0.805c-0.138-0.521-0.479-1.004-1.023-1.448
		c-0.544-0.445-1.246-0.667-2.104-0.667c-0.813,0-1.506,0.226-2.082,0.678c-0.575,0.453-0.862,1.017-0.862,1.69
		c0,0.614,0.265,1.131,0.793,1.553c0.528,0.422,1.307,0.802,2.334,1.139c0.813,0.261,1.491,0.514,2.036,0.759
		c0.544,0.246,1.096,0.571,1.656,0.978c0.56,0.407,0.981,0.912,1.265,1.519c0.284,0.605,0.425,1.307,0.425,2.104
		s-0.165,1.51-0.494,2.139c-0.33,0.629-0.767,1.127-1.311,1.495c-0.544,0.368-1.131,0.647-1.76,0.839
		C117.375,46.189,116.73,46.285,116.071,46.285z"/>
	<path fill="#FFFFFF" d="M129.525,45.917h-2.115V31.473h-4.6V29.45h11.315v2.023h-4.601V45.917z"/>
	<path fill="#FFFFFF" d="M133.459,45.917l6.21-16.468h2.392l6.211,16.468h-2.347l-1.587-4.462h-6.923l-1.61,4.462H133.459z
		 M138.128,39.477h5.474l-2.69-7.429h-0.093L138.128,39.477z"/>
	<path fill="#FFFFFF" d="M150.203,45.917V29.449h2.115v14.443h7.131v2.024L150.203,45.917L150.203,45.917z"/>
	<path fill="#FFFFFF" d="M161.657,45.917V29.449h2.116v14.443h7.129v2.024L161.657,45.917L161.657,45.917z"/>
	<path fill="#FFFFFF" d="M171.73,45.917l6.209-16.468h2.393l6.21,16.468h-2.347l-1.586-4.462h-6.924l-1.609,4.462H171.73z
		 M176.398,39.477h5.475l-2.691-7.429h-0.092L176.398,39.477z"/>
	<path fill="#FFFFFF" d="M192.592,45.917h-2.115V31.473h-4.601V29.45h11.315v2.023h-4.601L192.592,45.917L192.592,45.917z"/>
	<path fill="#FFFFFF" d="M199.4,45.917V29.449h2.115v16.468H199.4z"/>
	<path fill="#FFFFFF" d="M218.295,43.789c-1.619,1.664-3.631,2.496-6.037,2.496c-2.408,0-4.42-0.832-6.039-2.496
		c-1.617-1.663-2.426-3.698-2.426-6.106c0-2.406,0.809-4.442,2.426-6.106c1.619-1.663,3.631-2.495,6.039-2.495
		c2.391,0,4.4,0.836,6.025,2.507c1.625,1.672,2.438,3.703,2.438,6.095C220.721,40.091,219.912,42.126,218.295,43.789z
		 M207.783,42.409c1.219,1.234,2.711,1.852,4.475,1.852c1.762,0,3.254-0.617,4.473-1.852c1.22-1.233,1.828-2.81,1.828-4.727
		c0-1.916-0.608-3.491-1.828-4.727c-1.219-1.233-2.711-1.851-4.473-1.851c-1.764,0-3.256,0.617-4.475,1.851
		c-1.219,1.235-1.828,2.811-1.828,4.727C205.955,39.6,206.564,41.176,207.783,42.409z"/>
	<path fill="#FFFFFF" d="M223.229,45.917V29.449h2.576l8.004,12.811h0.092l-0.092-3.174v-9.637h2.115v16.468h-2.209l-8.371-13.432
		h-0.092l0.092,3.174v10.258H223.229z"/>
	<path fill="#FFFFFF" d="M89.989,73.518V57.049h2.116l5.727,10.027h0.092l5.727-10.027h2.116v16.469h-2.116v-9.775l0.092-2.76
		h-0.092L98.5,70.021h-1.242l-5.152-9.039h-0.092l0.092,2.76v9.775H89.989z"/>
	<path fill="#FFFFFF" d="M122.546,71.389c-1.618,1.664-3.63,2.496-6.038,2.496c-2.408,0-4.42-0.832-6.038-2.496
		c-1.618-1.662-2.426-3.697-2.426-6.105c0-2.406,0.809-4.442,2.426-6.106c1.618-1.663,3.63-2.495,6.038-2.495
		c2.392,0,4.4,0.836,6.026,2.508c1.625,1.672,2.438,3.703,2.438,6.095C124.973,67.689,124.164,69.727,122.546,71.389z
		 M112.035,70.009c1.219,1.234,2.71,1.853,4.474,1.853c1.764,0,3.254-0.617,4.474-1.853c1.219-1.233,1.83-2.81,1.83-4.727
		c0-1.916-0.61-3.491-1.83-4.728c-1.219-1.232-2.71-1.851-4.474-1.851c-1.764,0-3.254,0.616-4.474,1.851
		c-1.219,1.235-1.828,2.812-1.828,4.728C110.207,67.199,110.816,68.775,112.035,70.009z"/>
	<path fill="#FFFFFF" d="M127.479,73.518V57.049h5.037c2.53,0,4.555,0.764,6.072,2.288c1.518,1.526,2.277,3.509,2.277,5.945
		c0,2.438-0.76,4.42-2.277,5.946c-1.518,1.524-3.542,2.287-6.072,2.287h-5.037V73.518z M129.596,71.492h2.92
		c1.901,0,3.408-0.544,4.521-1.633c1.112-1.088,1.667-2.614,1.667-4.577c0-1.946-0.557-3.47-1.667-4.565
		c-1.112-1.096-2.618-1.645-4.521-1.645h-2.92V71.492z"/>
	<path fill="#FFFFFF" d="M149.1,73.885c-1.81,0-3.277-0.599-4.404-1.794c-1.127-1.196-1.69-2.76-1.69-4.692v-10.35h2.116V67.49
		c0,1.304,0.341,2.357,1.023,3.162c0.683,0.806,1.668,1.207,2.955,1.207c1.289,0,2.273-0.401,2.957-1.207
		c0.682-0.805,1.022-1.858,1.022-3.162V57.049h2.116v10.35c0,1.947-0.549,3.517-1.646,4.705
		C152.453,73.291,150.971,73.885,149.1,73.885z"/>
	<path fill="#FFFFFF" d="M158.139,73.518V57.049h2.115v14.443h7.13v2.023h-9.245V73.518z"/>
	<path fill="#FFFFFF" d="M179.206,59.072h-7.498v5.222h6.763v1.978h-6.763v5.222h7.498v2.024h-9.614V57.049h9.614V59.072z"/>
</g>
<g>
	<path fill="#454545" stroke="#454545" stroke-miterlimit="10" d="M38.992,64.531c-0.245,0.412-0.55,0.8-0.914,1.164
		c-1.125,1.125-2.482,1.688-4.07,1.688c-1.589,0-2.945-0.563-4.07-1.688s-1.688-2.481-1.688-4.07c0-1.588,0.563-2.945,1.688-4.07
		s2.481-1.688,4.07-1.688c1.588,0,2.945,0.563,4.07,1.688s1.688,2.482,1.688,4.07v5.609h-0.773L38.992,64.531L38.992,64.531z
		 M34.008,66.57c1.364,0,2.531-0.481,3.5-1.445c0.963-0.969,1.445-2.135,1.445-3.5c0-1.364-0.482-2.531-1.445-3.5
		c-0.969-0.963-2.136-1.445-3.5-1.445c-1.365,0-2.531,0.482-3.5,1.445c-0.964,0.969-1.445,2.136-1.445,3.5
		c0,1.365,0.481,2.531,1.445,3.5C31.477,66.089,32.643,66.57,34.008,66.57z"/>
	<path fill="#454545" stroke="#454545" stroke-miterlimit="10" d="M46.93,56.883h-3.813V67.25h-0.82V56.883H38.5v-0.82h8.43V56.883z
		"/>
	<path fill="#454545" stroke="#454545" stroke-miterlimit="10" d="M58.008,61.539c-0.021,1.584-0.529,2.936-1.523,4.055
		c-0.995,1.12-2.19,1.68-3.586,1.68c-1.401,0-2.599-0.563-3.594-1.688c-0.995-1.119-1.5-2.475-1.516-4.063v-5.484h0.789v5.484
		c0.016,1.344,0.442,2.49,1.281,3.438c0.844,0.948,1.856,1.422,3.039,1.422c1.182,0,2.192-0.471,3.031-1.414
		c0.838-0.941,1.268-2.086,1.289-3.43v-5.5h0.789L58.008,61.539L58.008,61.539z"/>
	<path fill="#454545" stroke="#454545" stroke-miterlimit="10" d="M58.867,61.773c0.021-1.584,0.528-2.936,1.523-4.056
		c0.995-1.118,2.19-1.68,3.586-1.68c1.401,0,2.599,0.563,3.594,1.688c0.995,1.119,1.5,2.475,1.516,4.063v5.484h-0.789v-5.484
		c-0.016-1.344-0.443-2.489-1.281-3.438c-0.844-0.947-1.857-1.422-3.039-1.422c-1.183,0-2.193,0.471-3.031,1.413
		c-0.839,0.943-1.269,2.087-1.289,3.431v5.5h-0.789L58.867,61.773L58.867,61.773z"/>
</g>
</svg>
