<?xml version="1.0" encoding="utf-8"?>
<!-- Generator: Adobe Illustrator 16.0.0, SVG Export Plug-In . SVG Version: 6.00 Build 0)  -->
<!DOCTYPE svg PUBLIC "-//W3C//DTD SVG 1.1//EN" "http://www.w3.org/Graphics/SVG/1.1/DTD/svg11.dtd">
<svg version="1.1" id="Layer_1" xmlns="http://www.w3.org/2000/svg" xmlns:xlink="http://www.w3.org/1999/xlink" x="0px" y="0px"
	 width="100px" height="100px" viewBox="0 0 100 100" enable-background="new 0 0 100 100" xml:space="preserve">
<path fill="#FFFFFF" d="M60.563,42l-19.438,0.063c-7.002,0-10.353,0.823-10.353,6.404v18.478c-0.022,4.743,3.353,6.431,9.29,6.431
	h17.125c7.002,0,12-0.231,12-5.813l0.088-18.096C69.275,43.885,67.564,42,60.563,42z M52.287,57.81
	c0.009,0.084,0.025,0.166,0.025,0.253v4.875c0,1.277-1.035,2.313-2.313,2.313s-2.313-1.035-2.313-2.313v-4.875
	c0-0.075,0.015-0.146,0.022-0.221c-1.211-0.756-2.022-2.091-2.022-3.623c0-2.364,1.917-4.281,4.281-4.281
	c2.364,0,4.281,1.917,4.281,4.281C54.25,55.727,53.466,57.047,52.287,57.81z"/>
<path fill="#FFFFFF" d="M65.375,38.438L60.5,38.563c0.031-6.906-5.938-10.625-10.188-10.625c-4.546,0-9.875,2.5-10.844,10.531
	L34.5,38.438c0.75-10.375,6.847-15.313,15.563-15.313S65.375,28.688,65.375,38.438z"/>
</svg>
