<?xml version="1.0" encoding="utf-8"?>
<!-- Generator: Adobe Illustrator 16.0.0, SVG Export Plug-In . SVG Version: 6.00 Build 0)  -->
<!DOCTYPE svg PUBLIC "-//W3C//DTD SVG 1.1//EN" "http://www.w3.org/Graphics/SVG/1.1/DTD/svg11.dtd">
<svg version="1.1" id="Layer_1" xmlns="http://www.w3.org/2000/svg" xmlns:xlink="http://www.w3.org/1999/xlink" x="0px" y="0px"
	 width="187.838px" height="77.027px" viewBox="0 0 187.838 77.027" enable-background="new 0 0 187.838 77.027"
	 xml:space="preserve">
<rect x="9.865" y="9.135" fill="#272727" width="168.919" height="25.451"/>
<g>
	<path fill="#FFFFFF" d="M12.358,31.094V12.623h2.373v18.471H12.358z"/>
	<path fill="#FFFFFF" d="M18.446,31.094V12.623h2.889l8.978,14.369h0.103l-0.103-3.56V12.623h2.373v18.471h-2.477l-9.39-15.065
		h-0.103l0.103,3.56v11.505H18.446z"/>
	<path fill="#FFFFFF" d="M41.611,31.506c-1.341,0-2.653-0.438-3.934-1.315s-2.12-2.106-2.515-3.689l2.167-0.877
		c0.258,1.015,0.787,1.87,1.586,2.566c0.8,0.697,1.698,1.045,2.696,1.045c1.032,0,1.913-0.271,2.644-0.813
		c0.731-0.542,1.097-1.277,1.097-2.206c0-1.032-0.366-1.827-1.097-2.386c-0.731-0.559-1.888-1.079-3.47-1.561
		c-1.634-0.516-2.872-1.182-3.714-1.999c-0.843-0.816-1.264-1.861-1.264-3.134c0-1.324,0.524-2.477,1.574-3.457
		c1.048-0.98,2.416-1.47,4.102-1.47c1.564,0,2.837,0.392,3.818,1.174c0.98,0.783,1.616,1.638,1.909,2.567l-2.167,0.903
		c-0.155-0.584-0.538-1.126-1.148-1.625c-0.611-0.499-1.397-0.748-2.361-0.748c-0.912,0-1.689,0.254-2.334,0.761
		s-0.967,1.139-0.967,1.896c0,0.688,0.297,1.269,0.89,1.741c0.593,0.473,1.466,0.899,2.618,1.277
		c0.912,0.293,1.672,0.577,2.283,0.852c0.61,0.275,1.229,0.641,1.857,1.096c0.627,0.456,1.1,1.023,1.418,1.703
		c0.318,0.68,0.478,1.466,0.478,2.36c0,0.895-0.185,1.694-0.555,2.399c-0.37,0.706-0.86,1.264-1.471,1.677
		c-0.61,0.413-1.268,0.727-1.973,0.941C43.073,31.399,42.351,31.506,41.611,31.506z"/>
	<path fill="#FFFFFF" d="M56.703,31.094h-2.374v-16.2H49.17v-2.271h12.692v2.271h-5.159V31.094z"/>
	<path fill="#FFFFFF" d="M61.114,31.094l6.965-18.471h2.683l6.965,18.471h-2.631l-1.78-5.004h-7.765l-1.806,5.004H61.114z
		 M66.351,23.871h6.14l-3.018-8.333h-0.104L66.351,23.871z"/>
	<path fill="#FFFFFF" d="M79.894,31.094V12.623h2.373v16.201h7.997v2.27H79.894z"/>
	<path fill="#FFFFFF" d="M92.74,31.094V12.623h2.374v16.201h7.997v2.27H92.74z"/>
	<path fill="#FFFFFF" d="M104.039,31.094l6.965-18.471h2.684l6.965,18.471h-2.632l-1.779-5.004h-7.765l-1.807,5.004H104.039z
		 M109.275,23.871h6.14l-3.018-8.333h-0.104L109.275,23.871z"/>
	<path fill="#FFFFFF" d="M127.437,31.094h-2.373v-16.2h-5.159v-2.271h12.692v2.271h-5.16V31.094z"/>
	<path fill="#FFFFFF" d="M135.073,31.094V12.623h2.373v18.471H135.073z"/>
	<path fill="#FFFFFF" d="M156.265,28.708c-1.815,1.866-4.072,2.799-6.772,2.799s-4.957-0.933-6.771-2.799
		c-1.814-1.866-2.722-4.149-2.722-6.849c0-2.7,0.907-4.983,2.722-6.849c1.814-1.866,4.071-2.799,6.771-2.799
		c2.684,0,4.937,0.938,6.759,2.812c1.823,1.875,2.735,4.153,2.735,6.836C158.987,24.559,158.079,26.842,156.265,28.708z
		 M144.476,27.16c1.367,1.385,3.039,2.077,5.017,2.077s3.65-0.692,5.018-2.077c1.367-1.384,2.051-3.151,2.051-5.301
		c0-2.149-0.684-3.917-2.051-5.301c-1.367-1.384-3.04-2.077-5.018-2.077s-3.649,0.692-5.017,2.077
		c-1.367,1.385-2.052,3.152-2.052,5.301C142.424,24.008,143.109,25.775,144.476,27.16z"/>
	<path fill="#FFFFFF" d="M161.798,31.094V12.623h2.89l8.977,14.369h0.104l-0.104-3.56V12.623h2.374v18.471h-2.477l-9.391-15.065
		h-0.103l0.103,3.56v11.505H161.798z"/>
</g>
<g>
	<path fill="#272727" d="M9.991,68.359V37.136h4.012l10.858,19.014h0.174l10.858-19.014h4.012v31.224h-4.012V49.826l0.175-5.233
		h-0.175L26.126,61.73h-2.355l-9.768-17.138h-0.174l0.174,5.233v18.533H9.991z"/>
	<path fill="#272727" d="M71.718,64.325c-3.067,3.155-6.883,4.731-11.447,4.731c-4.564,0-8.38-1.576-11.447-4.731
		c-3.068-3.153-4.601-7.013-4.601-11.577s1.533-8.424,4.601-11.578c3.067-3.154,6.882-4.731,11.447-4.731
		c4.536,0,8.344,1.585,11.426,4.753c3.081,3.169,4.622,7.021,4.622,11.557C76.319,57.313,74.785,61.172,71.718,64.325z
		 M51.79,61.709c2.311,2.341,5.138,3.511,8.481,3.511s6.171-1.17,8.482-3.511c2.312-2.34,3.467-5.327,3.467-8.961
		s-1.155-6.621-3.467-8.962c-2.311-2.34-5.139-3.511-8.482-3.511s-6.17,1.171-8.481,3.511c-2.312,2.341-3.467,5.328-3.467,8.962
		S49.478,59.369,51.79,61.709z"/>
	<path fill="#272727" d="M81.072,68.359V37.136h9.55c4.797,0,8.635,1.446,11.513,4.339c2.878,2.894,4.317,6.65,4.317,11.273
		c0,4.622-1.439,8.38-4.317,11.272s-6.716,4.339-11.513,4.339H81.072z M85.084,64.521h5.538c3.604,0,6.461-1.031,8.569-3.096
		c2.107-2.064,3.161-4.956,3.161-8.678c0-3.692-1.054-6.578-3.161-8.656c-2.108-2.079-4.965-3.118-8.569-3.118h-5.538V64.521z"/>
	<path fill="#272727" d="M122.064,69.057c-3.431,0-6.214-1.134-8.351-3.401s-3.205-5.232-3.205-8.896V37.136h4.012v19.798
		c0,2.472,0.646,4.471,1.94,5.996c1.293,1.526,3.162,2.29,5.604,2.29c2.442,0,4.31-0.764,5.604-2.29
		c1.294-1.525,1.941-3.524,1.941-5.996V37.136h4.012V56.76c0,3.692-1.04,6.665-3.118,8.918
		C128.423,67.931,125.611,69.057,122.064,69.057z"/>
	<path fill="#272727" d="M139.202,68.359V37.136h4.012v27.386h13.519v3.838H139.202z"/>
	<path fill="#272727" d="M179.146,40.974h-14.217v9.898h12.821v3.751h-12.821v9.898h14.217v3.838h-18.229V37.136h18.229V40.974z"/>
</g>
</svg>
